<svg width="384" height="67" viewBox="0 0 384 67" fill="none" xmlns="http://www.w3.org/2000/svg">
<g filter="url(#filter0_d_1400_115)">
<path d="M35.96 1.2L47.88 1.2L55.24 58H41.8L40.6 45.28L24.44 45.28L17.96 58H4.44L35.96 1.2ZM40.36 36.24L38.76 16.16L28.36 36.24L40.36 36.24ZM69.85 1.2L100.17 1.2C102.303 1.2 104.063 1.76 105.45 2.88C106.89 4 107.957 5.44 108.65 7.2C109.397 8.96 109.77 10.8533 109.77 12.88C109.77 15.0133 109.343 17.1467 108.49 19.28C107.637 21.36 106.383 23.2533 104.73 24.96C103.13 26.6133 101.157 27.92 98.81 28.88C101.157 29.6267 102.97 30.9867 104.25 32.96C105.583 34.88 106.25 37.2533 106.25 40.08C106.25 43.12 105.637 45.76 104.41 48C103.237 50.24 101.61 52.1067 99.53 53.6C97.45 55.04 95.0767 56.1333 92.41 56.88C89.7433 57.6267 86.97 58 84.09 58L57.77 58L69.85 1.2ZM86.49 46.88C87.3433 46.88 88.17 46.6933 88.97 46.32C89.8233 45.9467 90.5433 45.44 91.13 44.8C91.77 44.1067 92.2767 43.28 92.65 42.32C93.0767 41.36 93.29 40.3467 93.29 39.28C93.29 38.3733 93.13 37.5733 92.81 36.88C92.49 36.1333 92.0633 35.5467 91.53 35.12C90.9967 34.6933 90.3567 34.48 89.61 34.48H75.85L73.29 46.88L86.49 46.88ZM89.69 24.16C90.4367 24.16 91.1833 24 91.93 23.68C92.6767 23.36 93.37 22.9067 94.01 22.32C94.65 21.68 95.1567 20.9067 95.53 20C95.9033 19.0933 96.09 18 96.09 16.72C96.09 15.3333 95.77 14.2667 95.13 13.52C94.49 12.7733 93.6633 12.4 92.65 12.4L80.57 12.4L78.09 24.16L89.69 24.16ZM131.308 58.48C127.841 58.48 124.775 57.84 122.108 56.56C119.441 55.2267 117.201 53.4667 115.388 51.28C113.575 49.04 112.188 46.5067 111.228 43.68C110.321 40.8 109.868 37.8133 109.868 34.72C109.868 31.3067 110.455 27.9467 111.628 24.64C112.801 21.3333 114.455 18.24 116.588 15.36C118.721 12.48 121.201 9.97333 124.028 7.84C126.908 5.65333 130.028 3.94666 133.388 2.72C136.748 1.49333 140.215 0.879996 143.788 0.879996C147.201 0.879996 150.241 1.54666 152.908 2.88C155.575 4.16 157.815 5.92 159.628 8.16C161.441 10.4 162.801 12.9333 163.708 15.76C164.615 18.5867 165.068 21.5467 165.068 24.64C165.068 28.0533 164.481 31.4133 163.308 34.72C162.135 37.9733 160.481 41.04 158.348 43.92C156.215 46.7467 153.735 49.2533 150.908 51.44C148.081 53.6267 144.988 55.36 141.628 56.64C138.321 57.8667 134.881 58.48 131.308 58.48ZM133.868 46.8C136.641 46.8 139.121 46.16 141.308 44.88C143.495 43.5467 145.361 41.84 146.908 39.76C148.455 37.6267 149.628 35.3333 150.428 32.88C151.228 30.3733 151.628 27.92 151.628 25.52C151.628 23.2267 151.255 21.0933 150.508 19.12C149.761 17.1467 148.615 15.5733 147.068 14.4C145.521 13.1733 143.521 12.56 141.068 12.56C138.348 12.56 135.895 13.2 133.708 14.48C131.521 15.76 129.655 17.44 128.108 19.52C126.561 21.6 125.361 23.8933 124.508 26.4C123.708 28.8533 123.308 31.28 123.308 33.68C123.308 36.0267 123.681 38.1867 124.428 40.16C125.175 42.1333 126.321 43.7333 127.868 44.96C129.468 46.1867 131.468 46.8 133.868 46.8ZM186.54 58.48C181.953 58.48 178.247 57.6267 175.42 55.92C172.647 54.2133 170.62 51.8933 169.34 48.96C168.113 46.0267 167.5 42.7467 167.5 39.12C167.5 37.68 167.58 36.24 167.74 34.8C167.9 33.3067 168.14 31.7867 168.46 30.24L174.7 1.2L187.82 1.2L181.58 30.24C181.367 31.4133 181.18 32.5333 181.02 33.6C180.913 34.6667 180.86 35.7067 180.86 36.72C180.86 38.64 181.127 40.3467 181.66 41.84C182.193 43.3333 183.047 44.5333 184.22 45.44C185.447 46.3467 187.047 46.8 189.02 46.8C191.047 46.8 192.86 46.3467 194.46 45.44C196.06 44.48 197.447 43.2267 198.62 41.68C199.793 40.08 200.78 38.2933 201.58 36.32C202.38 34.3467 203.02 32.32 203.5 30.24L209.66 1.2L222.78 1.2L216.62 30.24C215.767 34.1867 214.487 37.8667 212.78 41.28C211.127 44.6933 209.047 47.7067 206.54 50.32C204.033 52.88 201.1 54.88 197.74 56.32C194.433 57.76 190.7 58.48 186.54 58.48ZM239.484 12.72L223.244 12.72L225.644 1.2L271.164 1.2L268.764 12.72L252.604 12.72L242.924 58H229.804L239.484 12.72ZM299.624 58.48C295.038 58.48 291.331 57.6267 288.504 55.92C285.731 54.2133 283.704 51.8933 282.424 48.96C281.198 46.0267 280.584 42.7467 280.584 39.12C280.584 37.68 280.664 36.24 280.824 34.8C280.984 33.3067 281.224 31.7867 281.544 30.24L287.784 1.2L300.904 1.2L294.664 30.24C294.451 31.4133 294.264 32.5333 294.104 33.6C293.998 34.6667 293.944 35.7067 293.944 36.72C293.944 38.64 294.211 40.3467 294.744 41.84C295.278 43.3333 296.131 44.5333 297.304 45.44C298.531 46.3467 300.131 46.8 302.104 46.8C304.131 46.8 305.944 46.3467 307.544 45.44C309.144 44.48 310.531 43.2267 311.704 41.68C312.878 40.08 313.864 38.2933 314.664 36.32C315.464 34.3467 316.104 32.32 316.584 30.24L322.744 1.2L335.864 1.2L329.704 30.24C328.851 34.1867 327.571 37.8667 325.864 41.28C324.211 44.6933 322.131 47.7067 319.624 50.32C317.118 52.88 314.184 54.88 310.824 56.32C307.518 57.76 303.784 58.48 299.624 58.48ZM350.248 58.64C346.301 58.64 342.381 58.0267 338.488 56.8C334.595 55.52 331.288 53.7867 328.568 51.6L336.728 40.16C336.888 40.4267 337.395 40.9333 338.248 41.68C339.155 42.3733 340.355 43.12 341.848 43.92C343.395 44.6667 345.101 45.3333 346.968 45.92C348.888 46.5067 350.888 46.8 352.968 46.8C354.675 46.8 356.035 46.5867 357.048 46.16C358.115 45.7333 358.861 45.1467 359.288 44.4C359.768 43.6 360.008 42.72 360.008 41.76C360.008 40.5333 359.475 39.5467 358.408 38.8C357.395 38.0533 356.035 37.3867 354.328 36.8C352.675 36.2133 350.808 35.5733 348.728 34.88C346.221 33.9733 344.115 32.96 342.408 31.84C340.701 30.72 339.421 29.4133 338.568 27.92C337.715 26.3733 337.288 24.56 337.288 22.48C337.288 19.0133 337.955 15.9467 339.288 13.28C340.675 10.56 342.515 8.29333 344.808 6.48C347.155 4.61333 349.768 3.2 352.648 2.24C355.581 1.22666 358.595 0.719998 361.688 0.719998C364.248 0.719998 366.648 1.04 368.888 1.68C371.181 2.32 373.261 3.12 375.128 4.08C376.995 5.04 378.621 6 380.008 6.96L372.008 17.84C371.955 17.5733 371.528 17.1733 370.728 16.64C369.981 16.0533 368.968 15.44 367.688 14.8C366.461 14.16 365.075 13.6 363.528 13.12C361.981 12.64 360.408 12.4 358.808 12.4C357.315 12.4 356.035 12.64 354.968 13.12C353.901 13.5467 353.075 14.1867 352.488 15.04C351.955 15.84 351.688 16.8267 351.688 18C351.688 19.0133 352.061 19.8667 352.808 20.56C353.608 21.2 354.728 21.7867 356.168 22.32C357.608 22.8 359.288 23.3867 361.208 24.08C363.928 24.9333 366.301 25.9467 368.328 27.12C370.355 28.24 371.928 29.6533 373.048 31.36C374.221 33.0133 374.808 35.1733 374.808 37.84C374.808 41.6267 374.088 44.8533 372.648 47.52C371.208 50.1867 369.315 52.3467 366.968 54C364.621 55.6 361.981 56.7733 359.048 57.52C356.168 58.2667 353.235 58.64 350.248 58.64Z" fill="white"/>
</g>
<defs>
<filter id="filter0_d_1400_115" x="0.439941" y="0.720215" width="383.568" height="65.9199" filterUnits="userSpaceOnUse" color-interpolation-filters="sRGB">
<feFlood flood-opacity="0" result="BackgroundImageFix"/>
<feColorMatrix in="SourceAlpha" type="matrix" values="0 0 0 0 0 0 0 0 0 0 0 0 0 0 0 0 0 0 127 0" result="hardAlpha"/>
<feOffset dy="4"/>
<feGaussianBlur stdDeviation="2"/>
<feComposite in2="hardAlpha" operator="out"/>
<feColorMatrix type="matrix" values="0 0 0 0 0.262745 0 0 0 0 0.0627451 0 0 0 0 0.439216 0 0 0 1 0"/>
<feBlend mode="normal" in2="BackgroundImageFix" result="effect1_dropShadow_1400_115"/>
<feBlend mode="normal" in="SourceGraphic" in2="effect1_dropShadow_1400_115" result="shape"/>
</filter>
</defs>
</svg>
