<svg width="253" height="252" viewBox="0 0 253 252" fill="none" xmlns="http://www.w3.org/2000/svg">
<g filter="url(#filter0_d_1410_55)">
<path d="M246.756 97.0273C244.075 82.8551 238.754 69.6388 231.22 57.2581C230.522 56.123 229.735 55.8796 228.514 55.881C197.105 55.9092 165.697 55.9197 134.288 55.9124C132.201 55.9124 132.192 55.9124 132.192 53.8077C132.175 41.8268 132.161 29.8455 132.15 17.8637C132.15 16.1966 132.171 14.5295 132.15 12.8638C132.141 12.0146 132.48 11.5947 133.386 11.6809C133.916 11.7301 134.451 11.7137 134.981 11.7561C145.434 12.6149 155.602 14.7484 165.43 18.3601C177.273 22.6895 188.253 29.0106 197.874 37.0385C198.603 37.6457 199.341 37.9657 200.315 37.9589C204.84 37.9261 209.365 37.9589 213.89 37.9384C214.339 37.9384 214.948 38.1544 215.198 37.6525C215.469 37.1055 214.863 36.8429 214.554 36.5284C211.639 33.5633 208.571 30.7447 205.364 28.0836C193.905 18.5844 181.085 11.4274 166.904 6.61264C150.746 1.08489 134.115 -0.868007 117.071 0.346402C89.1487 2.33602 62.7936 13.7315 42.4896 32.5939C28.9493 45.1564 18.7644 59.9044 12.104 76.969C5.28424 94.4439 2.76876 112.496 4.55754 131.125C6.20798 148.645 11.4556 165.056 20.0836 180.478C20.7139 181.604 21.4658 181.961 22.7389 181.948C28.7006 181.89 34.6623 181.917 40.6267 181.917C61.7074 181.917 82.7881 181.917 103.869 181.917C106.163 181.917 106.166 181.932 106.168 184.171C106.168 189.901 106.168 195.631 106.168 201.361C106.168 207.039 106.168 212.718 106.168 218.396C106.168 219.178 106.27 219.97 105.166 220.223C101.472 221.068 97.7589 221.795 93.9493 221.265C91.2144 220.883 88.6291 220.07 86.8082 217.857C85.331 216.063 85.4484 215.309 87.1561 213.843C89.8673 211.518 92.2192 208.929 93.3876 205.493C93.9843 203.738 93.709 203.389 91.8852 203.715C91.0487 203.881 90.1898 203.912 89.3432 203.804C88.263 203.644 87.7794 203.224 88.5494 202.146C89.5431 200.789 90.3377 199.302 90.9098 197.729C91.1096 197.157 91.5443 196.498 91.0621 195.951C90.5283 195.34 89.7527 195.691 89.1056 195.824C86.9507 196.271 84.9789 197.171 83.0867 198.262C78.5798 200.861 73.9401 203.202 68.7652 204.24C66.0051 204.787 63.2437 204.75 60.7604 203.146C59.4369 202.291 58.7438 201.209 58.878 199.494C59.2874 194.254 56.4002 189.511 51.6194 187.542C47.0496 185.653 42.6293 185.935 38.7429 189.145C37.5117 190.162 36.6635 191.557 34.9781 192.104C34.2067 192.354 33.6253 193.232 33.7036 194.113C33.7818 194.994 34.7475 195.035 35.4155 195.278C37.5648 196.06 37.7269 196.713 36.124 198.302C34.8663 199.55 34.8942 199.903 36.3574 201.066C38.2594 202.578 38.2943 202.725 37.2839 204.963C33.8531 212.574 35.6838 219.683 42.3848 224.706C44.7458 226.484 47.1964 228.145 49.7272 229.684C50.6956 230.269 51.8136 231.028 51.6837 232.145C51.5537 233.263 50.1115 233.141 49.1989 233.475C49.1475 233.489 49.0945 233.497 49.041 233.499C47.6547 233.673 47.8196 234.425 48.4163 235.239C49.1947 236.299 50.412 236.76 51.5621 237.302C53.3341 238.139 53.3285 238.149 52.2147 239.764C50.9346 241.625 51.2784 242.405 53.5437 242.832C56.3653 243.362 58.9338 242.58 61.3697 241.315C62.3479 240.808 63.2102 240.723 64.2485 241.084C66.0513 241.71 67.8638 242.353 69.8007 242.473C72.0213 242.61 74.0491 242.174 75.5849 240.442C76.6358 239.257 76.5254 238.675 75.1042 237.94C74.1113 237.433 73.2104 236.769 72.4378 235.976C70.4617 233.935 70.5847 233.505 73.349 232.728C73.6047 232.657 73.8576 232.571 74.1148 232.508C77.9062 231.571 81.6738 230.66 85.4344 232.742C86.3875 233.269 87.5307 233.476 88.6039 233.789C97.5856 236.43 106.591 238.908 116.119 238.658C117.607 238.618 118.028 238.168 118.013 236.768C117.95 231.195 117.983 225.621 117.983 220.046C117.983 204.158 117.967 188.269 118.018 172.381C118.018 170.826 117.599 170.267 115.953 170.336C113.243 170.45 110.524 170.329 107.81 170.336C82.4685 170.347 57.1274 170.377 31.7862 170.425C29.8549 170.425 28.8515 169.878 28.0396 168.16C21.9521 155.315 18.2404 141.873 17.1922 127.74C17.0357 125.637 17.0525 125.636 19.1571 125.636H75.8519C94.7487 125.636 113.646 125.636 132.545 125.636C134.559 125.636 134.558 125.625 134.558 127.63C134.558 153.936 134.558 180.243 134.558 206.55C134.558 217.124 134.577 227.698 134.535 238.278C134.535 239.689 134.98 240.218 136.462 240.162C139.014 240.064 141.572 240.137 144.128 240.136C146.371 240.136 146.364 240.136 146.364 237.858C146.358 219.988 146.355 202.118 146.355 184.249C146.355 181.939 146.355 181.936 148.763 181.936H214.406C214.778 181.936 215.151 181.943 215.524 181.944C216.758 181.944 216.899 182.367 216.182 183.331C212.373 188.481 208.108 193.293 203.437 197.711C195.839 204.869 187.402 210.905 178.032 215.663C177.18 216.095 177.008 216.57 177.454 217.399C178.838 219.979 180.219 222.565 181.52 225.194C182.079 226.326 182.715 226.438 183.765 225.824C186.321 224.33 188.969 222.978 191.487 221.426C213.008 208.162 228.847 190.11 239.002 167.27C248.999 144.679 251.326 121.18 246.756 97.0273ZM126.013 114.122C90.2991 114.122 54.5844 114.122 18.8692 114.122C15.9345 114.122 15.8688 114.598 16.1497 111.202C17.4242 95.7773 21.8165 81.2523 29.4622 67.6928C37.5313 53.3788 48.3344 41.4298 61.8714 31.8458C76.423 21.5753 92.5919 15.1773 110.378 12.6519C112.957 12.284 115.549 12.0228 118.145 11.7643C120.224 11.5578 120.319 11.6617 120.319 13.7008C120.308 27.6072 120.296 41.5141 120.282 55.4215C120.282 58.6503 120.312 61.8792 120.321 65.108C120.321 67.3591 120.321 67.3604 122.557 67.3604C154.973 67.3604 187.387 67.344 219.802 67.3112C221.726 67.3112 222.761 67.8582 223.622 69.5226C230.118 82.0646 234.227 95.2795 235.578 109.294C235.684 110.389 235.753 111.483 235.887 112.56C236.021 113.638 235.701 114.283 234.436 114.122C234.117 114.101 233.798 114.101 233.479 114.122H126.013ZM236.921 127.813C235.778 142.157 231.926 155.766 225.366 168.639C224.704 169.944 223.951 170.417 222.451 170.417C197.815 170.37 173.179 170.36 148.542 170.384C146.365 170.384 146.355 170.376 146.355 168.212C146.355 154.673 146.355 141.134 146.355 127.595C146.355 125.573 146.365 125.566 148.496 125.565C162.916 125.565 177.337 125.565 191.757 125.565C206.124 125.565 220.491 125.565 234.858 125.565C237.149 125.567 237.101 125.577 236.924 127.807L236.921 127.813Z" fill="#9D69E2"/>
</g>
<defs>
<filter id="filter0_d_1410_55" x="0" y="0" width="253" height="252" filterUnits="userSpaceOnUse" color-interpolation-filters="sRGB">
<feFlood flood-opacity="0" result="BackgroundImageFix"/>
<feColorMatrix in="SourceAlpha" type="matrix" values="0 0 0 0 0 0 0 0 0 0 0 0 0 0 0 0 0 0 127 0" result="hardAlpha"/>
<feOffset dy="5"/>
<feGaussianBlur stdDeviation="2"/>
<feComposite in2="hardAlpha" operator="out"/>
<feColorMatrix type="matrix" values="0 0 0 0 0.262745 0 0 0 0 0.0627451 0 0 0 0 0.439216 0 0 0 1 0"/>
<feBlend mode="normal" in2="BackgroundImageFix" result="effect1_dropShadow_1410_55"/>
<feBlend mode="normal" in="SourceGraphic" in2="effect1_dropShadow_1410_55" result="shape"/>
</filter>
</defs>
</svg>
