<svg width="262" height="68" viewBox="0 0 262 68" fill="none" xmlns="http://www.w3.org/2000/svg">
<g filter="url(#filter0_d_1402_79)">
<path d="M15.36 59.88C13.0667 59.88 11.0133 59.5867 9.2 59C7.38667 58.4133 5.78667 57.5333 4.4 56.36L9.44 45.64C9.81333 46.0133 10.7733 46.5467 12.32 47.24C13.8667 47.88 15.7067 48.2 17.84 48.2C19.6 48.2 21.0933 47.88 22.32 47.24C23.5467 46.5467 24.56 45.5067 25.36 44.12C26.2133 42.7333 26.96 40.9733 27.6 38.84C28.24 36.6533 28.88 34.0667 29.52 31.08L35.68 2.2L48.88 2.2L42.72 31.08C41.8133 35.4 40.72 39.32 39.44 42.84C38.2133 46.36 36.6133 49.4 34.64 51.96C32.72 54.52 30.1867 56.4933 27.04 57.88C23.9467 59.2133 20.0533 59.88 15.36 59.88ZM62.285 59.8C58.0717 59.8 54.6317 59 51.965 57.4C49.2983 55.7467 47.325 53.5867 46.045 50.92C44.8183 48.2 44.205 45.2133 44.205 41.96C44.205 38.5467 44.8183 35.2933 46.045 32.2C47.325 29.1067 49.1117 26.36 51.405 23.96C53.6983 21.56 56.4183 19.6667 59.565 18.28C62.765 16.8933 66.3383 16.2 70.285 16.2C74.5517 16.2 77.9917 17 80.605 18.6C83.2717 20.2 85.2183 22.36 86.445 25.08C87.725 27.7467 88.365 30.7333 88.365 34.04C88.365 37.4 87.725 40.6267 86.445 43.72C85.2183 46.8133 83.4583 49.5867 81.165 52.04C78.8717 54.44 76.125 56.3333 72.925 57.72C69.7783 59.1067 66.2317 59.8 62.285 59.8ZM64.125 49C65.565 49 66.925 48.68 68.205 48.04C69.5383 47.3467 70.7117 46.3867 71.725 45.16C72.7383 43.9333 73.5383 42.4933 74.125 40.84C74.7117 39.1867 75.005 37.4267 75.005 35.56C75.005 33.8 74.7383 32.3067 74.205 31.08C73.725 29.8 73.005 28.8133 72.045 28.12C71.085 27.4267 69.885 27.08 68.445 27.08C67.0583 27.08 65.6983 27.4267 64.365 28.12C63.085 28.76 61.9117 29.6933 60.845 30.92C59.8317 32.1467 59.0317 33.5867 58.445 35.24C57.8583 36.8933 57.565 38.68 57.565 40.6C57.565 42.2533 57.805 43.72 58.285 45C58.8183 46.28 59.565 47.2667 60.525 47.96C61.5383 48.6533 62.7383 49 64.125 49ZM95.9506 17H108.751L99.7906 59H86.9906L95.9506 17ZM99.3906 0.599998L112.191 0.599998L109.711 12.2L96.9106 12.2L99.3906 0.599998ZM114.557 17L126.077 17L124.557 24.04C125.89 22.3867 127.437 20.9733 129.197 19.8C130.957 18.6267 132.877 17.7467 134.957 17.16C137.09 16.52 139.304 16.2 141.597 16.2C144.104 16.2 146.024 16.6533 147.357 17.56C148.69 18.4667 149.624 19.6667 150.157 21.16C150.744 22.6 151.037 24.1733 151.037 25.88C151.037 26.9467 150.957 28.0133 150.797 29.08C150.637 30.0933 150.477 31.1067 150.317 32.12L144.637 59H131.837L136.877 35.4C136.984 34.76 137.064 34.2 137.117 33.72C137.17 33.1867 137.197 32.68 137.197 32.2C137.197 30.5467 136.824 29.3467 136.077 28.6C135.384 27.8533 134.477 27.48 133.357 27.48C132.344 27.48 131.224 27.8 129.997 28.44C128.77 29.08 127.57 29.96 126.397 31.08C125.277 32.2 124.317 33.48 123.517 34.92L118.397 59H105.597L114.557 17ZM189.94 59.48C185.353 59.48 181.647 58.6267 178.82 56.92C176.047 55.2133 174.02 52.8933 172.74 49.96C171.513 47.0267 170.9 43.7467 170.9 40.12C170.9 38.68 170.98 37.24 171.14 35.8C171.3 34.3067 171.54 32.7867 171.86 31.24L178.1 2.2L191.22 2.2L184.98 31.24C184.767 32.4133 184.58 33.5333 184.42 34.6C184.313 35.6667 184.26 36.7067 184.26 37.72C184.26 39.64 184.527 41.3467 185.06 42.84C185.593 44.3333 186.447 45.5333 187.62 46.44C188.847 47.3467 190.447 47.8 192.42 47.8C194.447 47.8 196.26 47.3467 197.86 46.44C199.46 45.48 200.847 44.2267 202.02 42.68C203.193 41.08 204.18 39.2933 204.98 37.32C205.78 35.3467 206.42 33.32 206.9 31.24L213.06 2.2L226.18 2.2L220.02 31.24C219.167 35.1867 217.887 38.8667 216.18 42.28C214.527 45.6933 212.447 48.7067 209.94 51.32C207.433 53.88 204.5 55.88 201.14 57.32C197.833 58.76 194.1 59.48 189.94 59.48ZM235.381 59.8C231.967 59.8 228.714 59.24 225.621 58.12C222.581 56.9467 220.127 55.2667 218.261 53.08L224.421 45.24C226.501 47 228.581 48.36 230.661 49.32C232.794 50.2267 234.874 50.68 236.901 50.68C238.074 50.68 239.034 50.52 239.781 50.2C240.581 49.88 241.167 49.4267 241.541 48.84C241.914 48.2533 242.101 47.56 242.101 46.76C242.101 45.8 241.647 45.0267 240.741 44.44C239.834 43.8 238.314 43.16 236.181 42.52C233.247 41.56 230.874 40.6533 229.061 39.8C227.247 38.8933 225.887 37.8533 224.981 36.68C224.127 35.5067 223.701 34.0667 223.701 32.36C223.701 29.2667 224.554 26.52 226.261 24.12C228.021 21.72 230.367 19.8 233.301 18.36C236.234 16.92 239.487 16.2 243.061 16.2C246.101 16.2 248.821 16.6267 251.221 17.48C253.674 18.3333 255.914 19.88 257.941 22.12L251.381 29.8C249.461 28.1467 247.727 26.9733 246.181 26.28C244.634 25.5333 243.061 25.16 241.461 25.16C240.394 25.16 239.461 25.32 238.661 25.64C237.861 25.96 237.247 26.4133 236.821 27C236.394 27.5867 236.181 28.3067 236.181 29.16C236.181 30.12 236.607 30.8667 237.461 31.4C238.314 31.9333 239.834 32.52 242.021 33.16C245.061 34.0133 247.514 34.9467 249.381 35.96C251.301 36.9733 252.714 38.12 253.621 39.4C254.527 40.68 254.981 42.2533 254.981 44.12C254.981 47.16 254.154 49.88 252.501 52.28C250.901 54.6267 248.634 56.4667 245.701 57.8C242.767 59.1333 239.327 59.8 235.381 59.8Z" fill="white"/>
</g>
<defs>
<filter id="filter0_d_1402_79" x="0.399902" y="0.600098" width="261.541" height="67.2798" filterUnits="userSpaceOnUse" color-interpolation-filters="sRGB">
<feFlood flood-opacity="0" result="BackgroundImageFix"/>
<feColorMatrix in="SourceAlpha" type="matrix" values="0 0 0 0 0 0 0 0 0 0 0 0 0 0 0 0 0 0 127 0" result="hardAlpha"/>
<feOffset dy="4"/>
<feGaussianBlur stdDeviation="2"/>
<feComposite in2="hardAlpha" operator="out"/>
<feColorMatrix type="matrix" values="0 0 0 0 0.262745 0 0 0 0 0.0627451 0 0 0 0 0.439216 0 0 0 1 0"/>
<feBlend mode="normal" in2="BackgroundImageFix" result="effect1_dropShadow_1402_79"/>
<feBlend mode="normal" in="SourceGraphic" in2="effect1_dropShadow_1402_79" result="shape"/>
</filter>
</defs>
</svg>
